<mxfile host="Electron" agent="Mozilla/5.0 (Windows NT 10.0; Win64; x64) AppleWebKit/537.36 (KHTML, like Gecko) draw.io/24.7.17 Chrome/128.0.6613.36 Electron/32.0.1 Safari/537.36" version="24.7.17">
  <diagram id="C5RBs43oDa-KdzZeNtuy" name="Page-1">
    <mxGraphModel dx="1008" dy="592" grid="1" gridSize="10" guides="1" tooltips="1" connect="1" arrows="1" fold="1" page="1" pageScale="1" pageWidth="827" pageHeight="1169" math="0" shadow="0">
      <root>
        <mxCell id="WIyWlLk6GJQsqaUBKTNV-0" />
        <mxCell id="WIyWlLk6GJQsqaUBKTNV-1" parent="WIyWlLk6GJQsqaUBKTNV-0" />
        <mxCell id="NVtGfEz5Z17VFWLJtbc4-2" value="" style="edgeStyle=orthogonalEdgeStyle;rounded=0;orthogonalLoop=1;jettySize=auto;html=1;" edge="1" parent="WIyWlLk6GJQsqaUBKTNV-1" source="NVtGfEz5Z17VFWLJtbc4-0" target="NVtGfEz5Z17VFWLJtbc4-1">
          <mxGeometry relative="1" as="geometry" />
        </mxCell>
        <mxCell id="NVtGfEz5Z17VFWLJtbc4-0" value="Start" style="ellipse;whiteSpace=wrap;html=1;" vertex="1" parent="WIyWlLk6GJQsqaUBKTNV-1">
          <mxGeometry x="354" y="20" width="120" height="50" as="geometry" />
        </mxCell>
        <mxCell id="NVtGfEz5Z17VFWLJtbc4-4" value="" style="edgeStyle=orthogonalEdgeStyle;rounded=0;orthogonalLoop=1;jettySize=auto;html=1;" edge="1" parent="WIyWlLk6GJQsqaUBKTNV-1" source="NVtGfEz5Z17VFWLJtbc4-1" target="NVtGfEz5Z17VFWLJtbc4-3">
          <mxGeometry relative="1" as="geometry" />
        </mxCell>
        <mxCell id="NVtGfEz5Z17VFWLJtbc4-1" value="init variables e, summ, n, an" style="whiteSpace=wrap;html=1;" vertex="1" parent="WIyWlLk6GJQsqaUBKTNV-1">
          <mxGeometry x="354" y="90" width="120" height="40" as="geometry" />
        </mxCell>
        <mxCell id="NVtGfEz5Z17VFWLJtbc4-6" value="" style="edgeStyle=orthogonalEdgeStyle;rounded=0;orthogonalLoop=1;jettySize=auto;html=1;" edge="1" parent="WIyWlLk6GJQsqaUBKTNV-1" source="NVtGfEz5Z17VFWLJtbc4-3" target="NVtGfEz5Z17VFWLJtbc4-5">
          <mxGeometry relative="1" as="geometry" />
        </mxCell>
        <mxCell id="NVtGfEz5Z17VFWLJtbc4-3" value="output &quot;input n&quot; and input n" style="shape=parallelogram;perimeter=parallelogramPerimeter;whiteSpace=wrap;html=1;fixedSize=1;" vertex="1" parent="WIyWlLk6GJQsqaUBKTNV-1">
          <mxGeometry x="354" y="150" width="120" height="40" as="geometry" />
        </mxCell>
        <mxCell id="NVtGfEz5Z17VFWLJtbc4-8" value="" style="edgeStyle=orthogonalEdgeStyle;rounded=0;orthogonalLoop=1;jettySize=auto;html=1;" edge="1" parent="WIyWlLk6GJQsqaUBKTNV-1" source="NVtGfEz5Z17VFWLJtbc4-5" target="NVtGfEz5Z17VFWLJtbc4-7">
          <mxGeometry relative="1" as="geometry" />
        </mxCell>
        <mxCell id="NVtGfEz5Z17VFWLJtbc4-5" value="an = ((2^n) * factorialn(n)) / (n^n)" style="whiteSpace=wrap;html=1;" vertex="1" parent="WIyWlLk6GJQsqaUBKTNV-1">
          <mxGeometry x="354" y="210" width="120" height="40" as="geometry" />
        </mxCell>
        <mxCell id="NVtGfEz5Z17VFWLJtbc4-10" value="" style="edgeStyle=orthogonalEdgeStyle;rounded=0;orthogonalLoop=1;jettySize=auto;html=1;" edge="1" parent="WIyWlLk6GJQsqaUBKTNV-1" source="NVtGfEz5Z17VFWLJtbc4-7" target="NVtGfEz5Z17VFWLJtbc4-9">
          <mxGeometry relative="1" as="geometry" />
        </mxCell>
        <mxCell id="NVtGfEz5Z17VFWLJtbc4-7" value="summ += an" style="whiteSpace=wrap;html=1;" vertex="1" parent="WIyWlLk6GJQsqaUBKTNV-1">
          <mxGeometry x="354" y="270" width="120" height="30" as="geometry" />
        </mxCell>
        <mxCell id="NVtGfEz5Z17VFWLJtbc4-12" value="" style="edgeStyle=orthogonalEdgeStyle;rounded=0;orthogonalLoop=1;jettySize=auto;html=1;" edge="1" parent="WIyWlLk6GJQsqaUBKTNV-1" source="NVtGfEz5Z17VFWLJtbc4-9" target="NVtGfEz5Z17VFWLJtbc4-11">
          <mxGeometry relative="1" as="geometry" />
        </mxCell>
        <mxCell id="NVtGfEz5Z17VFWLJtbc4-9" value="an = an * ((2 * (n^n)) / ((n +1) ^ n)" style="whiteSpace=wrap;html=1;" vertex="1" parent="WIyWlLk6GJQsqaUBKTNV-1">
          <mxGeometry x="354" y="320" width="120" height="40" as="geometry" />
        </mxCell>
        <mxCell id="NVtGfEz5Z17VFWLJtbc4-14" value="" style="edgeStyle=orthogonalEdgeStyle;rounded=0;orthogonalLoop=1;jettySize=auto;html=1;" edge="1" parent="WIyWlLk6GJQsqaUBKTNV-1" source="NVtGfEz5Z17VFWLJtbc4-11" target="NVtGfEz5Z17VFWLJtbc4-13">
          <mxGeometry relative="1" as="geometry" />
        </mxCell>
        <mxCell id="NVtGfEz5Z17VFWLJtbc4-17" style="edgeStyle=orthogonalEdgeStyle;rounded=0;orthogonalLoop=1;jettySize=auto;html=1;exitX=0;exitY=0.5;exitDx=0;exitDy=0;entryX=0;entryY=0.5;entryDx=0;entryDy=0;" edge="1" parent="WIyWlLk6GJQsqaUBKTNV-1" source="NVtGfEz5Z17VFWLJtbc4-11" target="NVtGfEz5Z17VFWLJtbc4-7">
          <mxGeometry relative="1" as="geometry" />
        </mxCell>
        <mxCell id="NVtGfEz5Z17VFWLJtbc4-11" value="an &amp;gt; e" style="rhombus;whiteSpace=wrap;html=1;" vertex="1" parent="WIyWlLk6GJQsqaUBKTNV-1">
          <mxGeometry x="374" y="380" width="80" height="50" as="geometry" />
        </mxCell>
        <mxCell id="NVtGfEz5Z17VFWLJtbc4-16" value="" style="edgeStyle=orthogonalEdgeStyle;rounded=0;orthogonalLoop=1;jettySize=auto;html=1;" edge="1" parent="WIyWlLk6GJQsqaUBKTNV-1" source="NVtGfEz5Z17VFWLJtbc4-13" target="NVtGfEz5Z17VFWLJtbc4-15">
          <mxGeometry relative="1" as="geometry" />
        </mxCell>
        <mxCell id="NVtGfEz5Z17VFWLJtbc4-13" value="output the result" style="shape=parallelogram;perimeter=parallelogramPerimeter;whiteSpace=wrap;html=1;fixedSize=1;" vertex="1" parent="WIyWlLk6GJQsqaUBKTNV-1">
          <mxGeometry x="354" y="450" width="120" height="30" as="geometry" />
        </mxCell>
        <mxCell id="NVtGfEz5Z17VFWLJtbc4-15" value="Finish" style="ellipse;whiteSpace=wrap;html=1;" vertex="1" parent="WIyWlLk6GJQsqaUBKTNV-1">
          <mxGeometry x="374" y="505" width="80" height="45" as="geometry" />
        </mxCell>
        <mxCell id="NVtGfEz5Z17VFWLJtbc4-18" value="-" style="text;html=1;align=center;verticalAlign=middle;whiteSpace=wrap;rounded=0;" vertex="1" parent="WIyWlLk6GJQsqaUBKTNV-1">
          <mxGeometry x="410" y="420" width="60" height="30" as="geometry" />
        </mxCell>
        <mxCell id="NVtGfEz5Z17VFWLJtbc4-19" value="+" style="text;html=1;align=center;verticalAlign=middle;whiteSpace=wrap;rounded=0;" vertex="1" parent="WIyWlLk6GJQsqaUBKTNV-1">
          <mxGeometry x="330" y="370" width="60" height="30" as="geometry" />
        </mxCell>
      </root>
    </mxGraphModel>
  </diagram>
</mxfile>
